<svg xmlns="http://www.w3.org/2000/svg" width="20" height="18" viewBox="0 0 20 18">
    <path fill="#C0070A" fill-rule="evenodd" d="M18.353 17.996l-.002.004H1.65l-.003-.004a1.534 1.534 0 0 1-.109.004C.688 18 0 17.3 0 16.435c0-.31.089-.6.242-.844L8.582.957C8.815.395 9.362 0 10 0c.638 0 1.185.395 1.418.957l8.34 14.634c.153.244.242.533.242.844 0 .864-.689 1.565-1.538 1.565-.037 0-.073-.001-.109-.004zm-7.42-11.453H9.067l.154 5.065h1.556l.154-5.065zm-.93 8.474c.632 0 1.012-.345 1.012-.925 0-.59-.38-.936-1.013-.936-.637 0-1.017.346-1.017.936 0 .58.38.925 1.017.925z"/>
</svg>